#!OML:ASF F:\VICON\USERDATA\INSTALL\rory3\rory3.ASF
:FULLY-SPECIFIED
:DEGREES
51
root -0.004256936268186018 18.088784004702642 9.293908512883752 -3.4019704468686403 -1.3100473536564499 -4.3651378511980665
lfemur -8.124170268643567 -1.4489973157000857 -14.952803314062955
ltibia 64.68630983355864
lfoot 5.276429412039064 -11.538262219570484
ltoes -6.530602540537361
rfemur -15.563033868646347 4.977035876388561 30.58422482274139
rtibia 30.989678217799057
rfoot -10.543372450742071 -5.182147821330667
rtoes 9.539765480154488
lowerback 10.000772634576764 -0.25621065023756046 2.7523399732066043
upperback 0.5465680028614066 0.07050661627599147 2.7619541174841027
thorax -4.876536882009972 -0.009964328386319055 0.8613509688473102
lowerneck -15.8622798762268 -2.8540497111878054 -1.7042439301906451
upperneck 24.33530431826008 -3.3916208086439914 -0.6455045599728728
head 10.462833242905527 -1.7870106243967607 -0.39533031061377055
lclavicle -1.3870428291733188e-15 -1.8433427228016537e-15
lhumerus -28.61799002751946 0.7217924257924562 82.5337572345699
lradius 27.88906411592425
lwrist 3.981437036072596
lhand -25.61331586300755 25.73974983858446
lfingers 7.125019999999999
lthumb 0.6606687429466764 55.34648438132719
rclavicle -1.3817478444365662e-15 -1.8370980836893914e-15
rhumerus -33.69441306092713 -29.464100077007966 -69.72073622389277
rradius 17.98297078283187
rwrist 15.60222380200473
rhand -17.578603156484228 23.34968587932327
rfingers 7.125019999999999
rthumb 8.574488256183614 -6.5425667175769195
52
root -0.03756353891694797 18.109401293477774 10.147852642670191 -3.3350012340614548 -1.9402784302103961 -4.960981765000928
lfemur -12.394150348200892 -0.2772578278984379 -14.154380477655494
ltibia 67.73499240823786
lfoot 0.6507662273105348 -9.392698623188213
ltoes -6.835415925206086
rfemur -13.26220178378786 5.4708531913425755 31.841372728110827
rtibia 30.592155783972526
rfoot -11.753463505087717 -5.475100635569782
rtoes 8.86507580665441
lowerback 9.954251199287091 0.1563608937652896 3.328203483009476
upperback 0.33325452245948756 0.7007012386992515 2.7168008260885577
thorax -5.0025425760217015 0.2882848301413558 0.2841420960862483
lowerneck -15.693937258429088 -2.8867853771733056 -1.614215376848745
upperneck 24.354538066304183 -3.49176635837577 -0.5630430377100184
head 10.444792185159093 -1.818601627968944 -0.3922760012436265
lclavicle -1.387026114157433e-15 -1.8433268018015277e-15
lhumerus -30.071313247080788 1.8983115576988405 82.37433482485841
lradius 26.943169371094797
lwrist 2.9943898525806203
lhand -26.71762355713169 24.47150573456926
lfingers 7.125019999999999
lthumb -0.28009422842535914 54.26547359047331
rclavicle -1.3852329463429735e-15 -1.8402650437131264e-15
rhumerus -31.418380974560456 -26.15594539927258 -72.96182465874317
rradius 19.167274882382863
rwrist 13.114515002673048
rhand -17.696662352636995 23.171115596359456
rfingers 7.125019999999999
rthumb 8.536758038180727 -6.6904097653750405
53
root -0.061424918534514594 18.12611736214988 10.93106013665551 -3.124391242193843 -2.781073605925445 -5.409703203330148
lfemur -16.732010026280555 0.75267746057889 -13.71009470995034
ltibia 68.24593669324128
lfoot -0.9702999341276968 -8.344735893420697
ltoes -6.842607661123202
rfemur -10.899063771293978 5.937373127056113 32.734039711556875
rtibia 29.865644703223143
rfoot -12.556110685166589 -5.719952521255076
rtoes 8.220688433704805
lowerback 9.965197996290602 0.6278152231759455 3.6510817591131017
upperback 0.11517439618454553 1.336318212819429 2.5325242905443917
thorax -5.229507226104051 0.5821776431387975 -0.2989864927755901
lowerneck -15.662584193348879 -2.8915766051911493 -1.5346221470974517
upperneck 24.44455041535333 -3.5305461395271016 -0.5490480263065478
head 10.452102055658557 -1.826098280219281 -0.3973547342045255
lclavicle -1.387207226730436e-15 -1.8434945639214286e-15
lhumerus -31.6374685970999 3.2273986905638696 82.00309257573335
lradius 26.23111024314204
lwrist 3.2772555351355916
lhand -27.349738302365058 23.90820323548429
lfingers 7.125019999999999
lthumb -0.8501994998611401 53.90198712799306
rclavicle -1.38458861193431e-15 -1.8397507954439684e-15
rhumerus -29.37718697578936 -22.92923759355838 -75.63390234285923
rradius 20.87221755990423
rwrist 10.973850479655358
rhand -17.91861137522226 22.16484526472406
rfingers 7.125019999999999
rthumb 8.366957728745971 -7.740905973524929
54
root -0.05632627600005413 18.069298551598408 11.940811422741216 -2.870969113700706 -3.0227539218663173 -5.489642681936417
lfemur -20.178625706488422 0.9031791453627513 -13.79622139458927
ltibia 66.19679378486634
lfoot -5.262660579566189 -5.905083361403656
ltoes -7.938278254567798
rfemur -9.239583104998793 5.468752021660432 32.8370612211136
rtibia 30.223781986863358
rfoot -14.153343471019788 -5.769563211692006
rtoes 8.754287867306132
lowerback 10.22650642214462 0.9056018021647125 3.967710312278014
upperback -0.034352213475345145 1.7279872842331798 2.2195784866739716
thorax -5.3814821637831285 0.7709919121543851 -0.8810802875003565
lowerneck -15.753200564800318 -2.867628724667593 -1.434329769118499
upperneck 24.36630236611383 -3.52732553350869 -0.5906081249864344
head 10.45173370439973 -1.8248253292508516 -0.4255126312983411
lclavicle -1.3874140021240516e-15 -1.8436863412323597e-15
lhumerus -32.69521536200213 4.643183307626382 81.57108758167
lradius 25.08383137838575
lwrist 3.633036160879528
lhand -26.556458864036287 24.14382015125596
lfingers 7.125019999999999
lthumb -0.4046682292501974 53.694077721191334
rclavicle -1.385608258642426e-15 -1.8410336527441367e-15
rhumerus -27.49604617910177 -19.716668590751592 -78.09651797561185
rradius 23.059934731530298
rwrist 7.387775871833507
rhand -18.058294189466768 21.160123585384365
rfingers 7.125019999999999
rthumb 8.190586054093664 -8.768404371366561
55
root -0.04668038066810454 17.98295031057725 12.997309705323808 -2.696932733647082 -3.295695483282869 -5.891041836578055
lfemur -22.879319316199357 0.7984083419329089 -13.398622585059137
ltibia 62.342119786963266
lfoot -8.164841524874618 -3.360146781297289
ltoes -7.607301244342713
rfemur -7.460757118064987 5.146592605767861 33.360910525829254
rtibia 30.835174496180137
rfoot -15.771249221401872 -6.16355995847318
rtoes 8.278147489067667
lowerback 10.908867964925248 1.1810861870065028 4.4164082022185145
upperback -0.22904024505387546 2.1305093172349303 2.077186084205427
thorax -5.8323641373748725 0.9369931263576263 -1.2863300606152877
lowerneck -15.698125735087025 -2.88179911880306 -1.4267115348698933
upperneck 24.119323687503645 -3.560354095900173 -0.5558556566159591
head 10.386193061537416 -1.835155383512775 -0.4313719609231792
lclavicle -1.3866126833020652e-15 -1.8429412008627102e-15
lhumerus -33.614585143839605 6.008391844676277 81.2228604938288
lradius 23.848423980645133
lwrist 2.8110081345607263
lhand -26.33304104397783 24.253094949722872
lfingers 7.125019999999999
lthumb -0.09414622111959348 54.23335070434163
rclavicle -1.3878048042270332e-15 -1.8430076226728706e-15
rhumerus -25.842966932609112 -16.774947816465144 -79.72413864549928
rradius 25.19961165760854
rwrist 4.277311808253698
rhand -18.291871391968094 20.605811254156595
rfingers 7.125019999999999
rthumb 8.02163407110152 -9.064232349376775
56
root -0.028429444305933305 17.932915198589665 13.800374678428724 -2.3711061981447354 -3.6807224255727213 -6.4487526779693205
lfemur -24.794065391956828 0.40050938106731504 -12.731129866923471
ltibia 56.18065097260214
lfoot -9.147181401022266 -0.6847218976969256
ltoes -6.034394280459994
rfemur -5.396379012641484 5.296974208299842 33.999855127468734
rtibia 30.670244364157654
rfoot -16.24008635950989 -6.528901152543608
rtoes 8.34806224342697
lowerback 11.096481208383404 1.4616964942467527 4.929158317859737
upperback -0.2350240084049733 2.5523995971015307 2.0649023711600045
thorax -5.826136026714274 1.1054760291269934 -1.6716925409274361
lowerneck -15.83316315762707 -2.8857786274774178 -1.387144863921836
upperneck 23.86420433431588 -3.579738665923249 -0.5470563279342354
head 10.319458250356405 -1.839670702686624 -0.44039502006438896
lclavicle -1.3874741708768296e-15 -1.8437414978485132e-15
lhumerus -34.179467923533565 7.206541158783134 80.83922701717113
lradius 22.17716859559692
lwrist 1.325183015744586
lhand -27.01135402575884 24.143298710474674
lfingers 7.125019999999999
lthumb -0.6032167165820546 54.4377541659733
rclavicle -1.388067196475758e-15 -1.843337864065745e-15
rhumerus -24.242701213266553 -14.339719105178393 -80.77960510417984
rradius 27.362782667784376
rwrist 1.3472924242424993
rhand -18.587932232351275 21.370516623200267
rfingers 7.125019999999999
rthumb 7.763667619812973 -8.22582341984237
57
root -0.0035318008115124977 17.929783883201896 14.636774922661353 -1.946259508846301 -3.8444939860052916 -6.469111285641619
lfemur -25.62389667019871 -0.6533915158697001 -12.465199502642058
ltibia 47.64640312840211
lfoot -8.50449882542854 1.1445583982764327
ltoes -6.048425334499468
rfemur -3.3031695011802515 5.232908099106524 33.987734148219225
rtibia 29.88565429750539
rfoot -15.784339818830055 -6.767280644171361
rtoes 8.161669702311627
lowerback 10.865637881311107 1.696907163082776 5.032063581886276
upperback -0.2364202017729328 2.855287478705301 1.9451727475130736
thorax -5.62042963173999 1.253554753227084 -1.851722365193525
lowerneck -15.940004111195192 -2.86512624556669 -1.284889554046702
upperneck 23.533099253791626 -3.551563906636146 -0.5885282236014756
head 10.20648707437922 -1.8293706910456453 -0.46785524782418497
lclavicle -1.3865602643411828e-15 -1.8428918003374553e-15
lhumerus -34.47093561753745 8.703848895680855 80.24285167691573
lradius 19.955878221116517
lwrist -1.3171363180360038
lhand -27.108146126162467 24.26349179346759
lfingers 7.125019999999999
lthumb -0.8855374111220117 54.255961252299144
rclavicle -1.3911588424858592e-15 -1.846423234016737e-15
rhumerus -22.890240520437413 -13.129046391864003 -81.07977207591372
rradius 28.510644488344514
rwrist -0.43010665877915066
rhand -18.641473278460847 22.739263270719576
rfingers 7.125019999999999
rthumb 7.795609658173694 -6.890253938032923
